<?xml version="1.0" encoding="utf-8"?>
<!-- Generator: Adobe Illustrator 26.0.0, SVG Export Plug-In . SVG Version: 6.00 Build 0)  -->
<svg version="1.1" id="Layer_1" xmlns="http://www.w3.org/2000/svg" xmlns:xlink="http://www.w3.org/1999/xlink" x="0px" y="0px"
	 viewBox="0 0 800 800" style="enable-background:new 0 0 800 800;" xml:space="preserve">
<style type="text/css">
	.st0{fill:#FF7609;}
</style>
<polygon class="st0" points="461.8,335 400.4,209.6 338.3,334.7 200,354.4 299.7,452.1 275.7,589.7 399.5,525 522.9,590.4 
	499.7,452.7 600,355.5 "/>
<path d="M400,0C179.1,0,0,179.1,0,400s179.1,400,400,400s400-179.1,400-400S620.9,0,400,0z M400,737.5
	C213.6,737.5,62.5,586.4,62.5,400S213.6,62.5,400,62.5S737.5,213.6,737.5,400S586.4,737.5,400,737.5z"/>
</svg>
